<svg width="400" height="280" viewBox="0 0 400 280" fill="none" xmlns="http://www.w3.org/2000/svg">
<g clip-path="url(#clip0_12_2)">
<path d="M0 8.09436C0 3.8091 3.19797 0.335205 7.14286 0.335205H392.857C396.801 0.335205 400 3.8091 400 8.09436V271.906C400 276.19 396.801 279.665 392.857 279.665H7.14286C3.19796 279.665 0 276.19 0 271.906V8.09436Z" fill="#454545"/>
<path d="M0 8.09436C0 3.8091 3.19797 0.335205 7.14286 0.335205H35.7143V279.665H7.14286C3.19796 279.665 0 276.19 0 271.906V8.09436Z" fill="#3A3A3A"/>
<path d="M0 8.09436C0 3.8091 3.19797 0.335205 7.14286 0.335205H392.857C396.801 0.335205 400 3.8091 400 8.09436V15.8535H0V8.09436Z" fill="#686868"/>
<path d="M12.1429 8.09436C12.1429 10.237 10.5439 11.9739 8.57143 11.9739C6.59899 11.9739 5 10.237 5 8.09436C5 5.95173 6.59899 4.21478 8.57143 4.21478C10.5439 4.21478 12.1429 5.95173 12.1429 8.09436Z" fill="#FF7D34"/>
<path d="M22.1429 8.09436C22.1429 10.237 20.5439 11.9739 18.5714 11.9739C16.599 11.9739 15 10.237 15 8.09436C15 5.95173 16.599 4.21478 18.5714 4.21478C20.5439 4.21478 22.1429 5.95173 22.1429 8.09436Z" fill="#FFEA7B"/>
<path d="M32.8571 8.09436C32.8571 10.237 31.2581 11.9739 29.2857 11.9739C27.3133 11.9739 25.7143 10.237 25.7143 8.09436C25.7143 5.95173 27.3133 4.21478 29.2857 4.21478C31.2581 4.21478 32.8571 5.95173 32.8571 8.09436Z" fill="#B5FFB4"/>
<path d="M25 37.5792C25 41.8644 21.802 45.3383 17.8571 45.3383C13.9123 45.3383 10.7143 41.8644 10.7143 37.5792C10.7143 33.2939 13.9123 29.82 17.8571 29.82C21.802 29.82 25 33.2939 25 37.5792Z" fill="#454545"/>
<path d="M25 65.5121C25 69.7973 21.802 73.2713 17.8571 73.2713C13.9123 73.2713 10.7143 69.7973 10.7143 65.5121C10.7143 61.2269 13.9123 57.753 17.8571 57.753C21.802 57.753 25 61.2269 25 65.5121Z" fill="#454545"/>
<path d="M25 254.836C25 259.12 21.802 262.595 17.8571 262.595C13.9123 262.595 10.7143 259.12 10.7143 254.836C10.7143 250.551 13.9123 247.076 17.8571 247.076C21.802 247.076 25 250.551 25 254.836Z" fill="#454545"/>
<path fill-rule="evenodd" clip-rule="evenodd" d="M103.571 99.6524C103.571 97.5098 105.17 95.7728 107.143 95.7728H178.571C180.544 95.7728 182.143 97.5098 182.143 99.6524C182.143 101.795 180.544 103.532 178.571 103.532H107.143C105.17 103.532 103.571 101.795 103.571 99.6524Z" fill="#D0ABFF"/>
<path fill-rule="evenodd" clip-rule="evenodd" d="M82.1429 37.5792C82.1429 35.4365 83.7419 33.6996 85.7143 33.6996H157.143C159.116 33.6996 160.714 35.4365 160.714 37.5792C160.714 39.7218 159.116 41.4587 157.143 41.4587H85.7143C83.7419 41.4587 82.1429 39.7218 82.1429 37.5792Z" fill="#D0ABFF"/>
<path fill-rule="evenodd" clip-rule="evenodd" d="M46.4286 99.6524C46.4286 97.5098 48.0276 95.7728 50 95.7728H92.8571C94.8296 95.7728 96.4286 97.5098 96.4286 99.6524C96.4286 101.795 94.8296 103.532 92.8571 103.532H50C48.0276 103.532 46.4286 101.795 46.4286 99.6524Z" fill="#8BE3FF"/>
<path fill-rule="evenodd" clip-rule="evenodd" d="M46.4286 216.04C46.4286 213.897 48.0276 212.16 50 212.16H107.143C109.115 212.16 110.714 213.897 110.714 216.04C110.714 218.183 109.115 219.919 107.143 219.919H50C48.0276 219.919 46.4286 218.183 46.4286 216.04Z" fill="#8BE3FF"/>
<path fill-rule="evenodd" clip-rule="evenodd" d="M67.8571 122.93C67.8571 120.787 69.4561 119.05 71.4286 119.05H121.429C123.401 119.05 125 120.787 125 122.93C125 125.072 123.401 126.809 121.429 126.809H71.4286C69.4561 126.809 67.8571 125.072 67.8571 122.93Z" fill="#E1E1E1"/>
<path fill-rule="evenodd" clip-rule="evenodd" d="M110.714 60.8566C110.714 58.714 112.313 56.9771 114.286 56.9771H200C201.973 56.9771 203.571 58.714 203.571 60.8566C203.571 62.9992 201.973 64.7362 200 64.7362H114.286C112.313 64.7362 110.714 62.9992 110.714 60.8566Z" fill="#FFF59C"/>
<path fill-rule="evenodd" clip-rule="evenodd" d="M46.4286 253.284C46.4286 251.141 48.0276 249.404 50 249.404H92.8571C94.8296 249.404 96.4286 251.141 96.4286 253.284C96.4286 255.427 94.8296 257.163 92.8571 257.163H50C48.0276 257.163 46.4286 255.427 46.4286 253.284Z" fill="#E1E1E1"/>
<path fill-rule="evenodd" clip-rule="evenodd" d="M67.8571 192.762C67.8571 190.619 69.4561 188.883 71.4286 188.883H121.429C123.401 188.883 125 190.619 125 192.762C125 194.905 123.401 196.642 121.429 196.642H71.4286C69.4561 196.642 67.8571 194.905 67.8571 192.762Z" fill="#F6BF8D"/>
<path fill-rule="evenodd" clip-rule="evenodd" d="M46.4286 60.8566C46.4286 58.714 48.0276 56.9771 50 56.9771H100C101.972 56.9771 103.571 58.714 103.571 60.8566C103.571 62.9992 101.972 64.7362 100 64.7362H50C48.0276 64.7362 46.4286 62.9992 46.4286 60.8566Z" fill="#E1E1E1"/>
<path fill-rule="evenodd" clip-rule="evenodd" d="M200 146.207C200 144.065 201.599 142.328 203.571 142.328H253.571C255.544 142.328 257.143 144.065 257.143 146.207C257.143 148.35 255.544 150.087 253.571 150.087H203.571C201.599 150.087 200 148.35 200 146.207Z" fill="#E1E1E1"/>
<path fill-rule="evenodd" clip-rule="evenodd" d="M132.143 192.762C132.143 190.619 133.742 188.883 135.714 188.883H214.286C216.259 188.883 217.857 190.619 217.857 192.762C217.857 194.905 216.259 196.642 214.286 196.642H135.714C133.742 196.642 132.143 194.905 132.143 192.762Z" fill="#E1E1E1"/>
<path fill-rule="evenodd" clip-rule="evenodd" d="M92.8571 169.485C92.8571 167.342 94.4561 165.605 96.4286 165.605H146.429C148.401 165.605 150 167.342 150 169.485C150 171.628 148.401 173.364 146.429 173.364H96.4286C94.4561 173.364 92.8571 171.628 92.8571 169.485Z" fill="#E1E1E1"/>
<path fill-rule="evenodd" clip-rule="evenodd" d="M132.143 122.93C132.143 120.787 133.742 119.05 135.714 119.05H221.429C223.401 119.05 225 120.787 225 122.93C225 125.072 223.401 126.809 221.429 126.809H135.714C133.742 126.809 132.143 125.072 132.143 122.93Z" fill="#FFF59C"/>
<path fill-rule="evenodd" clip-rule="evenodd" d="M92.8571 146.207C92.8571 144.065 94.4561 142.328 96.4286 142.328H189.286C191.259 142.328 192.857 144.065 192.857 146.207C192.857 148.35 191.259 150.087 189.286 150.087H96.4286C94.4561 150.087 92.8571 148.35 92.8571 146.207Z" fill="#F6BF8D"/>
<path fill-rule="evenodd" clip-rule="evenodd" d="M103.571 253.284C103.571 251.141 105.17 249.404 107.143 249.404H178.571C180.544 249.404 182.143 251.141 182.143 253.284C182.143 255.427 180.544 257.163 178.571 257.163H107.143C105.17 257.163 103.571 255.427 103.571 253.284Z" fill="#FFF59C"/>
<path fill-rule="evenodd" clip-rule="evenodd" d="M157.143 169.485C157.143 167.342 158.741 165.605 160.714 165.605H275C276.973 165.605 278.571 167.342 278.571 169.485C278.571 171.628 276.973 173.364 275 173.364H160.714C158.741 173.364 157.143 171.628 157.143 169.485Z" fill="#FFF59C"/>
<path fill-rule="evenodd" clip-rule="evenodd" d="M46.4286 37.5792C46.4286 35.4365 48.0276 33.6996 50 33.6996H71.4286C73.401 33.6996 75 35.4365 75 37.5792C75 39.7218 73.401 41.4587 71.4286 41.4587H50C48.0276 41.4587 46.4286 39.7218 46.4286 37.5792Z" fill="#8BE3FF"/>
<path d="M35.7143 271.906H400C400 276.19 396.801 279.665 392.857 279.665H35.7143V271.906Z" fill="#686868"/>
</g>
<defs>
<clipPath id="clip0_12_2">
<rect width="400" height="279.33" fill="white" transform="translate(0 0.335205)"/>
</clipPath>
</defs>
</svg>
