<svg width="750" height="750" viewBox="0 0 750 750" fill="none" xmlns="http://www.w3.org/2000/svg">
<path d="M94 230C92.5333 230 91.3333 229.533 90.4 228.6C89.4667 227.667 89 226.467 89 225V95C89 93.5333 89.4667 92.3333 90.4 91.4C91.3333 90.4667 92.5333 90 94 90H148.4C165.6 90 179.133 94 189 102C199 109.867 204 121.067 204 135.6C204 145.067 201.667 153.067 197 159.6C192.467 166.133 186.467 171.067 179 174.4L206.6 223.6C207 224.4 207.2 225.133 207.2 225.8C207.2 226.867 206.733 227.867 205.8 228.8C205 229.6 204 230 202.8 230H176.4C173.867 230 172 229.4 170.8 228.2C169.6 226.867 168.733 225.667 168.2 224.6L145.4 180.6H124.8V225C124.8 226.467 124.333 227.667 123.4 228.6C122.467 229.533 121.267 230 119.8 230H94ZM124.8 152.4H148C154.267 152.4 158.933 150.867 162 147.8C165.2 144.733 166.8 140.533 166.8 135.2C166.8 130 165.267 125.8 162.2 122.6C159.267 119.4 154.533 117.8 148 117.8H124.8V152.4Z" fill="black"/>
<rect x="25" y="25" width="450" height="450" rx="75" stroke="black" stroke-width="50"/>
<path d="M529 662C527.667 662 526.467 661.533 525.4 660.6C524.467 659.667 524 658.467 524 657V527C524 525.533 524.467 524.333 525.4 523.4C526.467 522.467 527.667 522 529 522H550.6C552.733 522 554.333 522.6 555.4 523.8C556.6 524.867 557.333 525.733 557.6 526.4L592.8 589.6L628 526.4C628.4 525.733 629.067 524.867 630 523.8C631.067 522.6 632.733 522 635 522H656.4C657.867 522 659.067 522.467 660 523.4C661.067 524.333 661.6 525.533 661.6 527V657C661.6 658.467 661.067 659.667 660 660.6C659.067 661.533 657.867 662 656.4 662H632.6C631.133 662 629.867 661.533 628.8 660.6C627.867 659.667 627.4 658.467 627.4 657V582L604.8 623.8C604.267 625 603.467 626.067 602.4 627C601.333 627.933 599.867 628.4 598 628.4H587.6C585.733 628.4 584.267 627.933 583.2 627C582.133 626.067 581.267 625 580.6 623.8L558 582V657C558 658.467 557.533 659.667 556.6 660.6C555.667 661.533 554.467 662 553 662H529Z" fill="black"/>
<rect x="275" y="275" width="450" height="450" rx="75" stroke="black" stroke-width="50"/>
</svg>
